<svg xmlns="http://www.w3.org/2000/svg" width="20" height="19" viewBox="0 0 20 19">
  <g id="Iconly_Broken_Heart" data-name="Iconly/Broken/Heart" transform="translate(-2 -2.5)">
    <g id="Heart" transform="translate(2 2.5)">
      <path id="Path_16813" data-name="Path 16813" d="M10.006,1.04A6.565,6.565,0,0,1,15.521.3a6.208,6.208,0,0,1,3.715,3.191,7.9,7.9,0,0,1,.335,5.96,12.518,12.518,0,0,1-2.965,4.764,23.866,23.866,0,0,1-2.815,2.472h0l-.053.045a.724.724,0,0,1-1.006-.2.748.748,0,0,1-.128-.559.739.739,0,0,1,.3-.483,23.335,23.335,0,0,0,2.647-2.328A10.947,10.947,0,0,0,18.2,8.986a6.345,6.345,0,0,0-.3-4.8,4.78,4.78,0,0,0-2.85-2.445,5.042,5.042,0,0,0-4.615.818.73.73,0,0,1-.882,0,5.033,5.033,0,0,0-4.615-.818A4.778,4.778,0,0,0,2.065,4.177a6.4,6.4,0,0,0-.282,4.782A10.981,10.981,0,0,0,4.429,13.13a33.039,33.039,0,0,0,5.753,4.494.763.763,0,0,1,.287.838A.743.743,0,0,1,9.776,19a.706.706,0,0,1-.406-.126,34.305,34.305,0,0,1-5.991-4.683A12.364,12.364,0,0,1,.406,9.427,7.945,7.945,0,0,1,.776,3.494,6.208,6.208,0,0,1,4.491.3,6.565,6.565,0,0,1,10.006,1.04ZM13.776,4h.112a3.466,3.466,0,0,1,2.374,3.011h0l.006.117a.746.746,0,0,1-.153.432.721.721,0,0,1-.488.278.744.744,0,0,1-.829-.647,1.972,1.972,0,0,0-1.359-1.8.762.762,0,0,1-.312-.877A.741.741,0,0,1,13.888,4Z" fill="#fff"/>
    </g>
  </g>
</svg>
