<svg id="Iconly_Broken_Buy" data-name="Iconly/Broken/Buy" xmlns="http://www.w3.org/2000/svg" width="21.329" height="21.329" viewBox="0 0 21.329 21.329">
  <g id="Buy" transform="translate(0 0)">
    <path id="Path_16812" data-name="Path 16812" d="M5.783,18.032a1.649,1.649,0,1,1-1.616,1.649A1.634,1.634,0,0,1,5.783,18.032Zm12,0a1.649,1.649,0,1,1-1.614,1.649A1.635,1.635,0,0,1,17.782,18.032ZM.827,0l.109.01L3.155.4a.81.81,0,0,1,.66.737h0L4.843,13.625a1.125,1.125,0,0,0,1.12,1.05H17.6a1.138,1.138,0,0,0,1.112-.982h0l1.012-7.138a.646.646,0,0,0-.147-.514A.62.62,0,0,0,19.1,5.82H7.64a.816.816,0,0,1,0-1.632H19.1a2.211,2.211,0,0,1,1.686.787,2.307,2.307,0,0,1,.521,1.815h0l-1.013,7.138a2.754,2.754,0,0,1-2.695,2.38H5.962a2.729,2.729,0,0,1-2.714-2.547h0L2.274,1.9.663,1.62A.816.816,0,0,1,.012.677.8.8,0,0,1,.936.011ZM15.889,8.21a.816.816,0,0,1,0,1.632H12.931a.816.816,0,0,1,0-1.632h2.957Z" transform="translate(0 0)" fill="#fff"/>
  </g>
</svg>
