<svg xmlns="http://www.w3.org/2000/svg" width="18.791" height="19.839" viewBox="0 0 18.791 19.839">
  <g id="Iconly_Broken_Home" data-name="Iconly/Broken/Home" transform="translate(-2.5 -2.004)">
    <g id="Home" transform="translate(2.5 2.004)">
      <path id="Path_16811" data-name="Path 16811" d="M2,5.025a.783.783,0,0,1,.8,1.284h0l-.7.522a1.47,1.47,0,0,0-.53,1.122h0v7.957a2.365,2.365,0,0,0,2.357,2.348h4v.017a.783.783,0,1,1,0,1.565h-4A3.93,3.93,0,0,1,0,15.918H0V7.953A3.026,3.026,0,0,1,1.174,5.6h0L1.9,5.066ZM7.122.8a3.609,3.609,0,0,1,4.522,0h0l6.009,4.791a3.052,3.052,0,0,1,1.139,2.348h0l-.009,7.974a3.922,3.922,0,0,1-3.922,3.922H13.122a1.9,1.9,0,0,1-1.9-1.9h0v-3.6l-.008-.091a.5.5,0,0,0-.5-.414H8.1a.5.5,0,0,0-.5.513h0v1.374a.783.783,0,0,1-1.565,0h0V14.344a2.078,2.078,0,0,1,2.078-2.078h2.609a2.078,2.078,0,0,1,2.07,2.078h0v3.591a.33.33,0,0,0,.33.33H14.9a2.348,2.348,0,0,0,2.348-2.348h0V7.953a1.47,1.47,0,0,0-.556-1.13h0L10.687,2.031a2.052,2.052,0,0,0-2.609,0h0L6.148,3.474a.8.8,0,1,1-.93-1.3h0Z" fill="#fff"/>
    </g>
  </g>
</svg>
